<svg xmlns="http://www.w3.org/2000/svg" viewBox="0 0 64 64" width="64" height="64">
  <circle cx="32" cy="32" r="30" fill="#b4054a"/>
  <!-- "d" as path -->
  <path d="M22,26 C22,22 25,20 28,20 C31,20 33,22 33,26 L33,18 L36,18 L36,42 L33,42 L33,40 C32,41.5 30,43 28,43 C24,43 22,40 22,36 Z M25,34 C25,38 27,40 29,40 C31,40 33,38 33,34 L33,30 C33,27 31,25 29,25 C27,25 25,27 25,30 Z" fill="white"/>
  <!-- "S" as path -->
  <path d="M40,27 C40,23 42,20 46,20 C49,20 51,22 51,24.5 L48,24.5 C48,23 47,22 46,22 C44,22 43,23.5 43,26 C43,28 44,29 46,29.5 C49,30.5 51,32 51,36 C51,40 49,43 45.5,43 C42,43 40,41 40,38 L43,38 C43,40 44,41 45.5,41 C47.5,41 48,39 48,36.5 C48,34 47,33 45,32 C42.5,31 40,30 40,27 Z" fill="white"/>
</svg>
